<svg width="445" height="280" viewBox="0 0 445 280" fill="none" xmlns="http://www.w3.org/2000/svg">
<g filter="url(#filter0_d_418_1317)">
<path d="M223.189 146.323C217.517 143.496 217.227 135.51 222.68 132.28L396.663 29.216C401.882 26.1245 408.508 29.7386 408.735 35.8L415.965 229.174C416.192 235.244 409.839 239.342 404.403 236.633L223.189 146.323Z" fill="#D5E4F3"/>
</g>
<g filter="url(#filter1_d_418_1317)">
<path d="M220.007 146.43C225.423 143.182 225.117 135.234 219.467 132.412L39.6778 42.6239C34.2413 39.9089 27.882 44.0075 28.1091 50.0799L35.3359 243.358C35.5632 249.439 42.2265 253.05 47.4449 249.92L220.007 146.43Z" fill="#D5E4F3"/>
</g>
<g filter="url(#filter2_d_418_1317)">
<path d="M214.782 87.4932C217.588 85.1127 221.657 84.9541 224.64 87.109L412.827 223.03C418.995 227.485 416.048 237.223 408.444 237.51L43.7852 251.262C36.1922 251.549 32.5143 242.082 38.3091 237.167L214.782 87.4932Z" fill="#DEE8F1"/>
</g>
<g filter="url(#filter3_d_418_1317)">
<path d="M218.705 192.871C221.689 195.046 225.775 194.897 228.592 192.509L406.005 42.103C411.802 37.1888 408.124 27.7201 400.53 28.0064L35.711 41.765C28.126 42.0511 25.166 51.7515 31.2991 56.2235L218.705 192.871Z" fill="#DEE8F1"/>
</g>
<defs>
<filter id="filter0_d_418_1317" x="190.757" y="0.0878906" width="253.215" height="265.397" filterUnits="userSpaceOnUse" color-interpolation-filters="sRGB">
<feFlood flood-opacity="0" result="BackgroundImageFix"/>
<feColorMatrix in="SourceAlpha" type="matrix" values="0 0 0 0 0 0 0 0 0 0 0 0 0 0 0 0 0 0 127 0" result="hardAlpha"/>
<feOffset/>
<feGaussianBlur stdDeviation="14"/>
<feComposite in2="hardAlpha" operator="out"/>
<feColorMatrix type="matrix" values="0 0 0 0 0 0 0 0 0 0 0 0 0 0 0 0 0 0 0.05 0"/>
<feBlend mode="normal" in2="BackgroundImageFix" result="effect1_dropShadow_418_1317"/>
<feBlend mode="normal" in="SourceGraphic" in2="effect1_dropShadow_418_1317" result="shape"/>
</filter>
<filter id="filter1_d_418_1317" x="0.103516" y="13.7695" width="251.789" height="265.301" filterUnits="userSpaceOnUse" color-interpolation-filters="sRGB">
<feFlood flood-opacity="0" result="BackgroundImageFix"/>
<feColorMatrix in="SourceAlpha" type="matrix" values="0 0 0 0 0 0 0 0 0 0 0 0 0 0 0 0 0 0 127 0" result="hardAlpha"/>
<feOffset/>
<feGaussianBlur stdDeviation="14"/>
<feComposite in2="hardAlpha" operator="out"/>
<feColorMatrix type="matrix" values="0 0 0 0 0 0 0 0 0 0 0 0 0 0 0 0 0 0 0.05 0"/>
<feBlend mode="normal" in2="BackgroundImageFix" result="effect1_dropShadow_418_1317"/>
<feBlend mode="normal" in="SourceGraphic" in2="effect1_dropShadow_418_1317" result="shape"/>
</filter>
<filter id="filter2_d_418_1317" x="7.46484" y="57.5942" width="436.691" height="221.674" filterUnits="userSpaceOnUse" color-interpolation-filters="sRGB">
<feFlood flood-opacity="0" result="BackgroundImageFix"/>
<feColorMatrix in="SourceAlpha" type="matrix" values="0 0 0 0 0 0 0 0 0 0 0 0 0 0 0 0 0 0 127 0" result="hardAlpha"/>
<feOffset/>
<feGaussianBlur stdDeviation="14"/>
<feComposite in2="hardAlpha" operator="out"/>
<feColorMatrix type="matrix" values="0 0 0 0 0 0 0 0 0 0 0 0 0 0 0 0 0 0 0.05 0"/>
<feBlend mode="normal" in2="BackgroundImageFix" result="effect1_dropShadow_418_1317"/>
<feBlend mode="normal" in="SourceGraphic" in2="effect1_dropShadow_418_1317" result="shape"/>
</filter>
<filter id="filter3_d_418_1317" x="0" y="0" width="436.851" height="222.406" filterUnits="userSpaceOnUse" color-interpolation-filters="sRGB">
<feFlood flood-opacity="0" result="BackgroundImageFix"/>
<feColorMatrix in="SourceAlpha" type="matrix" values="0 0 0 0 0 0 0 0 0 0 0 0 0 0 0 0 0 0 127 0" result="hardAlpha"/>
<feOffset/>
<feGaussianBlur stdDeviation="14"/>
<feComposite in2="hardAlpha" operator="out"/>
<feColorMatrix type="matrix" values="0 0 0 0 0 0 0 0 0 0 0 0 0 0 0 0 0 0 0.05 0"/>
<feBlend mode="normal" in2="BackgroundImageFix" result="effect1_dropShadow_418_1317"/>
<feBlend mode="normal" in="SourceGraphic" in2="effect1_dropShadow_418_1317" result="shape"/>
</filter>
</defs>
</svg>
