<svg width="445" height="280" viewBox="0 0 445 280" fill="none" xmlns="http://www.w3.org/2000/svg">
  <defs>
    <filter id="subtleShadow" x="-20%" y="-20%" width="140%" height="140%">
      <feDropShadow dx="0" dy="1" stdDeviation="2" flood-opacity="0.12"/>
    </filter>
  </defs>
  <!-- Right flap -->
  <g>
    <path d="M223.189 146.323C217.517 143.496 217.227 135.51 222.68 132.28L396.663 29.216C401.882 26.1245 408.508 29.7386 408.735 35.8L415.965 229.174C416.192 235.244 409.839 239.342 404.403 236.633L223.189 146.323Z" fill="#D5E4F3"/>
  </g>
  <!-- Left flap -->
  <g>
    <path d="M220.007 146.43C225.423 143.182 225.117 135.234 219.467 132.412L39.6778 42.6239C34.2413 39.9089 27.882 44.0075 28.1091 50.0799L35.3359 243.358C35.5632 249.439 42.2265 253.05 47.4449 249.92L220.007 146.43Z" fill="#D5E4F3"/>
  </g>
  <!-- Envelope body (with shadow, drawn before flap) -->
  <g filter="url(#subtleShadow)">
    <path d="M214.782 87.4932C217.588 85.1127 221.657 84.9541 224.64 87.109L412.827 223.03C418.995 227.485 416.048 237.223 408.444 237.51L43.7852 251.262C36.1922 251.549 32.5143 242.082 38.3091 237.167L214.782 87.4932Z" fill="#DEE8F1"/>
  </g>
  <!-- Top flap (with shadow, drawn on top) -->
  <g class="envelope-flap" filter="url(#subtleShadow)">
    <path d="M218.705 192.871C221.689 195.046 225.775 194.897 228.592 192.509L406.005 42.103C411.802 37.1888 408.124 27.7201 400.53 28.0064L35.711 41.765C28.126 42.0511 25.166 51.7515 31.2991 56.2235L218.705 192.871Z" fill="#DEE8F1"/>
  </g>
</svg>
